PathFileType	4	(X/Y/Z)	C:/Users/beibeiliu/ov580/test_trc/User1\sequence.23_training_dense_right.trc
DataRate	CameraRate	NumFrames	NumMarkers	Units	OrigDataRate	OrigDataStartFrame	OrigNumFrames
120	120	8	19	mm	120	151	240
Frame#	Time	ThumbCMC			ThumbMCP			ThumbIP			ThumbTip			IndexMCP			IndexPIP			IndexTip			MiddleMCP			MiddlePIP			MiddleTip			RingMCP			RingPIP			RingTip			PinkyMCP			PinkyPIP			PinkyTip			BackHand1			BackHand2			BackHand3	
		X0	Y0	Z0	X1	Y1	Z1	X2	Y2	Z2	X3	Y3	Z3	X4	Y4	Z4	X5	Y5	Z5	X6	Y6	Z6	X7	Y7	Z7	X8	Y8	Z8	X9	Y9	Z9	X10	Y10	Z10	X11	Y11	Z11	X12	Y12	Z12	X13	Y13	Z13	X14	Y14	Z14	X15	Y15	Z15	X16	Y16	Z16	X17	Y17	Z17	X18	Y18	Z18	
150	1.25	134.045	48.0942	65.2744	117.093	34.3549	28.4935	114.735	16.0828	6.1938	116.818	-14.4958	-1.71227	165.875	22.4109	-4.64458	136.478	15.4359	-17.953	123.726	27.6445	17.9155	170.387	-5.82508	-3.68697	136.883	-8.27839	-15.8131	119.089	2.88458	17.9458	160.719	-24.485	8.54087	125.629	-22.0161	1.61861	117.967	-8.57063	29.0182	171.258	-38.4282	34.2189	178.335	-48.1295	19.7769	193.556	-56.6909	0.471997	177.291	-8.0166	67.4837	168.348	-0.919746	99.5702	172.792	27.56	74.1624	
151	1.25833	125.758	45.3731	60.4772	105.779	28.6944	28.1687	110.573	8.162	4.74027	114.199	-18.6518	-2.21601	157.175	27.0378	-6.47132	130.636	10.1923	-15.7025	117.623	18.8742	20.4344	167.831	-1.35573	-3.43084	134.5	-8.62801	-14.7382	121.072	2.99416	20.2644	162.086	-25.9264	3.0078	128.683	-27.2124	0.535672	120.598	-15.7744	27.9772	178.136	-38.7753	33.5064	186.18	-44.9146	14.4232	199.167	-52.0089	-5.17155	177.074	-1.74458	65.4399	167.823	0.0546692	101.685	166.363	32.3922	72.1056	
152	1.26667	119.086	38.4666	62.5771	100.877	22.388	29.526	104.68	3.02406	-0.0967348	114.975	-22.4927	-6.5242	151.53	25.5394	-7.00662	124.391	8.30157	-15.6539	113.899	13.0529	18.8948	161.501	-0.0311689	-9.23395	129.336	-8.09325	-11.1992	124.277	-1.18902	27.2147	165.259	-20.1365	4.45093	134.662	-26.5788	-3.47765	121.397	-16.6383	26.1952	180.58	-30.4564	29.3562	191.147	-41.2838	9.91962	202.423	-41.8918	-6.56584	178.94	-0.54695	65.5421	164.253	7.12346	98.3524	158.336	36.1006	72.2333	
153	1.275	111.098	36.3503	65.092	97.0981	18.0489	28.6391	103.633	0.707713	0.133795	115.009	-25.3985	-7.96459	141.656	30.1072	-10.4175	119.637	6.74081	-16.1524	110.855	8.47204	18.9812	158.263	8.22545	-6.37788	126.505	-11.2828	-7.3474	122.772	2.57598	29.2179	163.567	-14.7832	-0.678226	133.582	-27.6725	-1.27002	123.059	-20.6288	29.3074	184.136	-24.2586	25.812	192.338	-31.2746	6.67649	204.687	-29.973	-14.145	177.064	6.0588	61.8513	168.345	9.71404	94.0303	153.538	36.6738	72.1565	
154	1.28333	107.261	31.8527	64.9833	94.6606	14.1111	28.5915	101.829	-2.23	2.92098	117.72	-25.5183	-8.70562	136.547	27.9701	-11.7854	113.855	5.86265	-15.0956	108.846	8.24104	20.4491	153.769	8.70107	-8.7084	126.76	-11.583	-9.54115	121.895	1.03037	29.9363	164.409	-10.8374	1.1198	137.002	-29.9719	-1.83645	121.878	-20.4544	27.7601	184.218	-19.5047	24.5936	191.195	-23.1477	6.92168	204.676	-21.2624	-11.8365	171.365	11.5476	61.3531	165.986	10.0795	94.815	148.405	41.1837	69.9221	
155	1.29167	103.986	28.7262	66.893	91.385	11.1804	29.4722	99.2083	-3.4685	1.67193	118.124	-23.3872	-6.31072	132.557	29.8063	-10.6628	112.943	3.91971	-12.5005	104.401	5.92342	18.1106	147.547	12.7686	-11.3045	123.889	-13.3466	-6.99004	121.532	-0.221159	30.9318	163.473	-9.04316	1.59224	134.645	-28.9297	-1.831	123.262	-20.7117	30.4282	183.496	-13.7299	23.3896	190.827	-17.6826	1.65336	201.834	-12.5605	-18.2999	173.728	13.7069	57.8851	164.134	11.7701	93.3345	144.135	38.9237	70.9958	
156	1.3	101.59	29.1137	64.9036	90.6046	8.83697	33.1326	98.2526	-4.89275	6.01419	114.446	-24.422	-7.86832	128.803	31.3111	-10.1396	109.669	3.71333	-12.8598	104.125	6.13296	19.5779	148.324	10.9193	-9.93921	122.551	-9.25835	-11.4968	123.191	-1.81795	31.3348	158.713	-6.65886	-3.68703	130.707	-25.9242	-1.36467	122.179	-19.4542	29.8794	182.59	-14.407	21.5718	186.552	-15.3549	1.763	201.087	-14.2253	-20.0367	171.109	14.951	56.8218	161.717	13.7501	92.93	145.423	40.5377	70.5154	
157	1.30833	99.45	28.3415	67.2323	92.2531	9.40043	28.186	99.536	-4.6239	2.15694	118.909	-24.7461	-6.16845	130.553	30.9565	-6.59424	108.273	6.05468	-14.4148	102.845	8.06408	22.356	145.655	11.1658	-11.5392	122.186	-12.4349	-6.46588	123	-2.21875	31.647	160.825	-10.495	0.192858	132.335	-27.0224	-3.24943	122.625	-23.8598	30.5335	182.796	-17.4977	22.0389	186.267	-19.9308	2.71938	197.543	-21.7171	-16.8422	170.241	13.8925	62.541	162.437	15.0515	95.0211	141.937	40.7478	70.2075	
